<svg width="30" height="26" viewBox="0 0 30 26" fill="none" xmlns="http://www.w3.org/2000/svg">
<path d="M29 9.00013H25.535L19.835 0.445128C19.6878 0.224468 19.459 0.071319 19.1989 0.0193714C18.9388 -0.0325761 18.6687 0.0209333 18.448 0.168128C18.2273 0.315324 18.0742 0.544147 18.0222 0.80426C17.9703 1.06437 18.0238 1.33447 18.171 1.55513L23.132 9.00013H6.868L11.832 1.55513C11.9792 1.33447 12.0327 1.06437 11.9808 0.80426C11.9288 0.544147 11.7757 0.315324 11.555 0.168128C11.3343 0.0209333 11.0642 -0.0325761 10.8041 0.0193714C10.544 0.071319 10.3152 0.224468 10.168 0.445128L4.465 9.00013H1C0.734784 9.00013 0.48043 9.10549 0.292893 9.29302C0.105357 9.48056 0 9.73491 0 10.0001C0 10.2653 0.105357 10.5197 0.292893 10.7072C0.48043 10.8948 0.734784 11.0001 1 11.0001H2.02C2.0125 11.0696 2.0125 11.1397 2.02 11.2091L5.02 25.2091C5.06792 25.4333 5.19143 25.6343 5.36984 25.7783C5.54825 25.9223 5.77072 26.0006 6 26.0001H24C24.2289 26.0001 24.4509 25.9216 24.6289 25.7777C24.8069 25.6337 24.9302 25.433 24.978 25.2091L27.978 11.2091C27.9855 11.1397 27.9855 11.0696 27.978 11.0001H29C29.2652 11.0001 29.5196 10.8948 29.7071 10.7072C29.8946 10.5197 30 10.2653 30 10.0001C30 9.73491 29.8946 9.48056 29.7071 9.29302C29.5196 9.10549 29.2652 9.00013 29 9.00013Z" fill="currentColor"/>
</svg>
