<svg width="24" height="24" viewBox="0 0 24 24" fill="none" xmlns="http://www.w3.org/2000/svg">
<path fill-rule="evenodd" clip-rule="evenodd" d="M12.8192 24H1.32469C0.592875 24 0 23.4067 0 22.6753V1.32469C0 0.592875 0.592875 0 1.32469 0H22.6755C23.4069 0 24 0.592875 24 1.32469V22.6753C24 23.4069 23.4069 24 22.6755 24H16.5596V14.7058H19.6793L20.1463 11.0837H16.5596V8.77125C16.5596 7.72256 16.8508 7.008 18.3546 7.008L20.2725 7.00725V3.76762C19.9408 3.72356 18.8023 3.62494 17.4776 3.62494C14.7122 3.62494 12.819 5.313 12.819 8.41275V11.0839H9.6915V14.706H12.8192V24Z" fill="currentColor"/>
</svg>
