<svg width="25" height="25" viewBox="0 0 25 25" fill="none" xmlns="http://www.w3.org/2000/svg">
<g clip-path="url(#clip0)">
<path d="M22.23 5.13C22 4.55 21.73 4.13 21.3 3.69C20.86 3.25 20.45 2.98 19.86 2.76C19.42 2.59 18.76 2.39 17.54 2.33C16.22 2.27 15.83 2.26 12.49 2.26C9.15 2.26 8.76 2.27 7.44 2.33C6.23 2.38 5.57 2.58 5.13 2.75C4.55 2.98 4.13 3.25 3.69 3.68C3.25 4.13 2.98 4.54 2.75 5.13C2.58 5.57 2.38 6.23 2.32 7.45C2.26 8.77 2.25 9.16 2.25 12.5C2.25 15.84 2.26 16.23 2.32 17.55C2.38 18.77 2.58 19.43 2.75 19.87C2.98 20.45 3.25 20.87 3.68 21.31C4.12 21.75 4.53 22.02 5.12 22.24C5.56 22.41 6.22 22.61 7.44 22.67C8.76 22.73 9.15 22.74 12.49 22.74C15.83 22.74 16.22 22.73 17.54 22.67C18.76 22.61 19.42 22.41 19.86 22.24C20.44 22.01 20.86 21.74 21.3 21.31C21.74 20.87 22.01 20.46 22.23 19.87C22.4 19.43 22.6 18.77 22.66 17.55C22.72 16.23 22.73 15.84 22.73 12.5C22.73 9.16 22.72 8.77 22.66 7.45C22.61 6.23 22.4 5.57 22.23 5.13ZM19.16 7.32C18.33 7.32 17.66 6.65 17.66 5.82C17.66 4.99 18.33 4.32 19.16 4.32C19.99 4.32 20.66 4.99 20.66 5.82C20.66 6.65 19.99 7.32 19.16 7.32ZM12.49 6.08C8.95 6.08 6.07 8.95 6.07 12.5C6.07 16.04 8.94 18.92 12.49 18.92C16.03 18.92 18.91 16.05 18.91 12.5C18.91 8.95 16.04 6.08 12.49 6.08ZM12.49 16.66C10.19 16.66 8.33 14.8 8.33 12.5C8.33 10.2 10.19 8.34 12.49 8.34C14.79 8.34 16.65 10.2 16.65 12.5C16.66 14.79 14.79 16.66 12.49 16.66ZM24.91 17.64C24.85 18.97 24.64 19.88 24.33 20.67C24.01 21.49 23.58 22.19 22.89 22.88C22.2 23.57 21.5 24 20.68 24.32C19.89 24.63 18.98 24.84 17.65 24.9C16.32 24.96 15.89 24.98 12.5 24.98C9.11 24.98 8.68 24.97 7.35 24.9C6.02 24.84 5.11 24.63 4.32 24.32C3.5 24 2.8 23.57 2.11 22.88C1.4 22.2 0.98 21.5 0.66 20.68C0.35 19.89 0.14 18.98 0.08 17.65C0.01 16.31 0 15.89 0 12.49C0 9.1 0.01 8.68 0.08 7.34C0.14 6.01 0.35 5.1 0.66 4.31C0.98 3.49 1.4 2.79 2.1 2.1C2.79 1.4 3.49 0.98 4.31 0.66C5.1 0.35 6.01 0.14 7.34 0.08C8.68 0.01 9.1 0 12.49 0C15.88 0 16.31 0.01 17.64 0.08C18.97 0.14 19.88 0.35 20.67 0.66C21.5 0.98 22.2 1.4 22.89 2.1C23.58 2.79 24.01 3.49 24.33 4.31C24.64 5.1 24.85 6.01 24.91 7.34C24.97 8.67 24.99 9.1 24.99 12.49C24.99 15.89 24.97 16.31 24.91 17.64Z" fill="currentColor"/>
</g>
<defs>
<clipPath id="clip0">
<rect width="24.99" height="24.99" fill="white"/>
</clipPath>
</defs>
</svg>
