<svg width="24" height="24" viewBox="0 0 24 24" fill="none" xmlns="http://www.w3.org/2000/svg">
<path d="M16.2857 0C14.2398 0 12.2776 0.812753 10.8309 2.25946C9.38418 3.70617 8.57143 5.66833 8.57143 7.71429C8.57143 8.37697 8.65787 9.03682 8.82857 9.67714L0.257143 18.2486C0.176153 18.328 0.111722 18.4226 0.0675817 18.5271C0.0234417 18.6316 0.000470786 18.7437 0 18.8571V23.1429C0 23.3702 0.0903058 23.5882 0.251051 23.7489C0.411797 23.9097 0.629814 24 0.857143 24H5.14286C5.37019 24 5.5882 23.9097 5.74895 23.7489C5.90969 23.5882 6 23.3702 6 23.1429V21.4286H7.71429C7.94161 21.4286 8.15963 21.3383 8.32038 21.1775C8.48112 21.0168 8.57143 20.7988 8.57143 20.5714V18.8571H10.2857C10.513 18.8571 10.7311 18.7668 10.8918 18.6061C11.0526 18.4453 11.1429 18.2273 11.1429 18V16.2857H12.8571C12.9699 16.2864 13.0818 16.2647 13.1862 16.2221C13.2906 16.1794 13.3856 16.1166 13.4657 16.0371L14.3229 15.18C14.9636 15.3478 15.6234 15.4314 16.2857 15.4286C18.3317 15.4286 20.2938 14.6158 21.7405 13.1691C23.1872 11.7224 24 9.76024 24 7.71429C24 5.66833 23.1872 3.70617 21.7405 2.25946C20.2938 0.812753 18.3317 0 16.2857 0ZM17.1429 9.42857C16.6343 9.42857 16.1371 9.27776 15.7142 8.99521C15.2914 8.71266 14.9618 8.31105 14.7672 7.84119C14.5725 7.37132 14.5216 6.85429 14.6208 6.35548C14.7201 5.85667 14.965 5.39849 15.3246 5.03887C15.6842 4.67925 16.1424 4.43434 16.6412 4.33512C17.14 4.2359 17.657 4.28683 18.1269 4.48145C18.5968 4.67608 18.9984 5.00566 19.2809 5.42853C19.5635 5.8514 19.7143 6.34856 19.7143 6.85714C19.7143 7.53913 19.4434 8.19318 18.9611 8.67542C18.4789 9.15765 17.8248 9.42857 17.1429 9.42857Z" fill="currentColor"/>
</svg>
