<svg width="28" height="28" viewBox="0 0 28 28" fill="none" xmlns="http://www.w3.org/2000/svg">
<path d="M27.7675 25.5029L20.5221 18.2039C20.2509 17.9304 20.2235 17.5084 20.4335 17.1853C23.4038 12.6299 22.7109 6.364 18.3289 2.62205C14.1126 -0.978768 7.69288 -0.85477 3.60859 2.89461C-1.08142 7.19999 -1.19999 14.5273 3.25402 18.9841C7.05317 22.7858 12.9315 23.2481 17.2495 20.3921C17.5738 20.1778 17.9986 20.2053 18.272 20.4813L25.5009 27.7638C25.8135 28.078 26.3212 28.0789 26.6346 27.7655L27.7658 26.6335C28.0775 26.3209 28.0781 25.8152 27.7675 25.5029ZM5.51716 16.7202C2.42487 13.6256 2.42573 8.59198 5.51716 5.49916C8.60774 2.40548 13.6375 2.40548 16.7292 5.49916C19.8203 8.59283 19.8203 13.6265 16.7292 16.7202C13.6375 19.8133 8.6086 19.8141 5.51716 16.7202Z" fill="white"/>
</svg>
