<svg width="28" height="28" viewBox="0 0 28 28" fill="none" xmlns="http://www.w3.org/2000/svg">
<g clip-path="url(#clip0)">
<path d="M22.5408 26.5228C22.3221 26.5228 22.1049 26.4581 21.9185 26.3317L14.8782 21.5561L11.1022 24.2732C10.806 24.4861 10.4243 24.5398 10.0804 24.4168C9.73699 24.2936 9.47616 24.0091 9.38306 23.6563L7.48707 16.4711L0.712465 13.8807C0.285977 13.7175 0.00312913 13.3095 2.57884e-05 12.8529C-0.00307756 12.3962 0.274155 11.9844 0.698574 11.8155L26.4581 1.56556C26.575 1.51591 26.6987 1.48724 26.8234 1.47955C26.868 1.47689 26.9128 1.47689 26.9573 1.47941C27.2156 1.49477 27.4694 1.59999 27.6674 1.79417C27.6879 1.81427 27.7074 1.83481 27.7259 1.85624C27.8899 2.04362 27.9801 2.27209 27.9971 2.50484C28.0012 2.56336 28.0009 2.62262 27.9957 2.68188C27.9922 2.72414 27.9861 2.76626 27.9776 2.80808L23.6295 25.6219C23.5596 25.9884 23.3101 26.2952 22.9655 26.4381C22.8288 26.4949 22.6844 26.5228 22.5408 26.5228ZM15.4964 19.2969L21.7676 23.5507L25.1509 5.79897L12.9315 17.5571L15.4668 19.2769C15.477 19.2833 15.4867 19.2901 15.4964 19.2969ZM10.2758 18.351L11.1155 21.5326L12.9246 20.2308L10.5557 18.6239C10.4456 18.5494 10.3513 18.4566 10.2758 18.351ZM4.15792 12.8246L8.80968 14.6032C9.14292 14.7305 9.39444 15.0107 9.48547 15.3556L10.0754 17.5914C10.1024 17.3335 10.2193 17.0909 10.4092 16.9081L22.0525 5.70439L4.15792 12.8246Z" fill="currentColor"/>
</g>
<defs>
<clipPath id="clip0">
<rect width="28" height="28" fill="white"/>
</clipPath>
</defs>
</svg>
