<svg width="328" height="48" viewBox="0 0 328 48" fill="none" xmlns="http://www.w3.org/2000/svg">
<g clip-path="url(#clip0)">
<path d="M50.8459 7.59143H0V46.972H8.96348V38.1944H50.8459C60.1267 38.1944 67.1071 32.2636 67.1071 23.0115C67.1071 13.7595 60.1267 7.59143 50.8459 7.59143ZM50.4493 30.1285H8.96348V15.7364H50.5287C55.1294 15.7364 58.223 18.5041 58.223 23.0906C58.223 27.6771 55.0501 30.1285 50.4493 30.1285Z" fill="white"/>
<path d="M73.1357 46.972H118.588V38.827H82.0992V30.9984H117.001V22.9325H82.0992V15.6573H118.588V7.59143H73.1357V46.972Z" fill="white"/>
<path d="M164.674 23.0906C164.674 13.8385 157.694 7.6705 148.413 7.6705H125.251V47.0511H134.056V38.1944H148.731L153.411 46.972H163.088L157.059 36.1384C161.819 33.6079 164.833 28.5469 164.674 23.0906ZM148.017 30.1285H134.135V15.7364H148.017C152.617 15.7364 155.711 18.5041 155.711 23.0906C155.711 27.6771 152.617 30.1285 148.017 30.1285Z" fill="white"/>
<path d="M170.544 46.972H179.428V31.8682H196.007V23.8814H179.428V15.6573H199.179V7.59143H170.544V46.972Z" fill="white"/>
<path d="M205.129 46.972H227.339V38.827H214.013V30.9984H225.832V22.9325H214.013V15.6573H227.339V7.59143H205.129V46.972Z" fill="white"/>
<path d="M254.468 14.6293C260.734 14.6293 264.7 17.0016 267.635 21.2718L274.536 17.318C270.491 10.4382 263.748 6.80066 254.547 6.80066C242.172 6.80066 232.495 14.7084 232.495 27.4399C232.495 40.1713 241.935 48.0791 254.547 48.0791C263.748 48.0791 270.491 44.4415 274.536 37.5618L267.635 33.6079C264.621 37.8781 260.734 40.2504 254.468 40.2504C246.773 40.2504 241.379 35.1104 241.379 27.5189C241.459 19.6112 246.535 14.6293 254.468 14.6293Z" fill="white"/>
<path d="M328 4.66557L326.334 0L305.234 7.67051V7.59143H278.74V15.5783H296.35V46.972H305.234V15.5783V12.8896L328 4.66557Z" fill="white"/>
</g>
<defs>
<clipPath id="clip0">
<rect width="328" height="48" fill="white"/>
</clipPath>
</defs>
</svg>
