<svg width="181" height="45" viewBox="0 0 181 45" fill="none" xmlns="http://www.w3.org/2000/svg">
<g opacity="0.7">
<path fill-rule="evenodd" clip-rule="evenodd" d="M89.9912 1.68493L90.8097 0.778184H93.0628V9.48873H89.6831C89.6831 7.38585 88.9994 5.50484 87.247 4.25083C85.3116 2.81354 82.1437 2.96788 80.1409 4.22189C77.0115 6.38264 76.1064 10.0482 76.5782 13.7234C77.0115 16.5112 78.5521 19.4919 81.3926 20.6784C83.771 21.6526 86.7078 21.151 88.4602 19.1735C89.0765 18.8456 88.9609 17.1285 88.9609 16.106C88.932 15.5755 88.5565 15.045 88.0269 14.852C87.3048 14.5434 86.3419 14.7266 85.4945 14.6591V11.9968H96.5388V14.6591C95.5374 14.688 94.3146 14.5048 93.9102 15.5659L93.7657 16.3183V23.8423H90.2801L89.712 22.5594C86.4863 25.0674 80.9208 24.7877 77.4448 22.9066C73.2563 20.7459 70.9646 16.3858 71.3112 11.6881C71.5038 7.04823 74.8739 2.56274 79.2262 0.903586C82.5096 -0.533702 86.987 -0.0706821 89.9912 1.68493Z" fill="#3D4D66"/>
<path fill-rule="evenodd" clip-rule="evenodd" d="M176.699 2.35048C176.979 1.84888 177.325 1.34727 177.576 0.816728C178.124 0.816728 178.856 0.78779 179.511 0.78779V9.31506H176.699C176.449 7.18324 175.322 5.02249 173.262 4.11574C171.452 3.3344 168.823 3.11253 167.128 4.27008C166.377 4.80062 165.934 5.52409 165.934 6.4019C165.934 7.25077 166.406 7.96459 167.128 8.46619C168.005 8.99674 168.977 9.24754 170.007 9.41152C173.637 10.2604 178.269 10.3472 179.8 14.524C180.522 17.1285 180.175 20.225 178.269 22.2024C175.794 24.8069 171.606 24.8069 168.322 23.958C167.013 23.5818 165.79 23.0224 164.596 22.3954L164.028 23.8712H161.775V14.7459H164.586C164.644 16.8102 165.463 18.7298 167.34 19.8873C169.276 21.1703 172.193 21.8648 174.446 20.7073C175.573 20.0803 176.382 18.8552 176.17 17.4758C175.544 14.8713 172.694 14.9099 170.633 14.4083C167.379 13.7234 163.19 13.4726 162.025 9.64303C161.37 6.88421 161.996 3.99999 164.307 2.1865C167.119 -0.041785 171.818 -0.292591 175.005 1.30868C175.602 1.55949 176.131 1.93569 176.699 2.35048Z" fill="#3D4D66"/>
<path fill-rule="evenodd" clip-rule="evenodd" d="M12.4212 3.44056C11.1695 3.5949 9.51332 2.96789 8.79115 4.31837C8.48303 4.79103 8.44451 5.41804 8.48303 6.00646V21.151C11.8339 20.9581 16.3402 22.0867 17.6497 18.2089C18.1215 16.926 18.0541 15.4212 18.0541 13.9453H20.6154V23.852H0V21.1607C1.19398 21.1317 2.56128 21.4115 3.22567 20.2829C3.57231 19.6848 3.58194 18.9324 3.58194 18.2186V4.47271C3.48565 3.90358 2.87903 3.5949 2.37833 3.49844C1.62728 3.40197 0.779938 3.4695 0 3.44056V0.778198H12.4212V3.44056Z" fill="#3D4D66"/>
<path fill-rule="evenodd" clip-rule="evenodd" d="M64.8023 15.8263L64.8311 15.8553V5.72672C64.7349 4.94537 64.3304 4.12544 63.5505 3.7203C62.8283 3.37303 61.9521 3.4695 61.1144 3.44056V0.778198H71.5039V3.44056C70.5603 3.4695 69.5011 3.28622 68.9041 4.06756C68.2494 4.81997 68.2205 5.84247 68.2205 6.82639V23.852H64.2823L52.6603 7.48233L52.6314 7.45339L52.6603 19.3954C52.6603 20.1092 53.0069 20.6784 53.6328 20.9967C54.4127 21.3054 55.3852 21.151 56.2903 21.151V23.8423H45.689V21.151C46.7289 21.151 48.1925 21.3633 48.6258 20.3986C48.905 19.8681 49.0494 19.2411 49.0205 18.5755V5.60131C48.8665 4.91643 48.6258 4.2219 47.9421 3.81676C47.3162 3.41162 46.4689 3.44056 45.689 3.44056V0.778198H54.4801L64.8023 15.8263Z" fill="#3D4D66"/>
<path fill-rule="evenodd" clip-rule="evenodd" d="M129.759 15.8263L129.787 15.8553V5.72672C129.691 4.94537 129.287 4.12544 128.507 3.7203C127.785 3.37303 126.908 3.4695 126.071 3.44056V0.778198H136.46V3.44056C135.526 3.4695 134.457 3.28622 133.86 4.06756C133.206 4.81997 133.177 5.84247 133.177 6.82639V23.852H129.239L117.626 7.49198L117.597 7.46304L117.626 19.4051C117.626 20.1189 117.973 20.688 118.599 21.0063C119.379 21.315 120.351 21.1607 121.256 21.1607V23.852H110.645V21.1607C111.685 21.1607 113.149 21.3729 113.582 20.4083C113.861 19.8777 114.006 19.2507 113.977 18.5851V5.60131C113.823 4.91643 113.582 4.2219 112.898 3.81676C112.273 3.41162 111.425 3.44056 110.645 3.44056V0.778198H119.436L129.759 15.8263Z" fill="#3D4D66"/>
<path fill-rule="evenodd" clip-rule="evenodd" d="M108.739 3.44056C107.583 3.41162 106.206 3.2187 105.552 4.3473C105.243 4.87785 105.253 5.57238 105.224 6.22832V19.2025C105.292 19.8874 105.58 20.553 106.206 20.8906C106.957 21.2957 107.891 21.0835 108.739 21.1703V23.8327H96.876V21.1414C97.9352 21.1703 99.158 21.3633 99.9091 20.5144C100.217 20.0803 100.342 19.5787 100.381 19.0385V5.3891C100.285 4.73316 100.034 4.00969 99.3795 3.66242C98.9269 3.44056 97.7041 3.44056 96.8952 3.44056V0.778198H108.739V3.44056Z" fill="#3D4D66"/>
<path fill-rule="evenodd" clip-rule="evenodd" d="M159.617 10.4051H156.931C157.085 7.86818 156.806 5.36016 154.553 4.03863C153.927 3.69136 153.205 3.50808 152.454 3.44056H146.224V10.3666C147.784 10.3666 149.777 10.492 150.518 9.30547C150.865 8.49518 150.769 7.44375 150.769 6.48877H153.176V17.2733H150.769C150.711 15.9228 150.99 14.389 149.709 13.6366C148.958 13.2411 147.437 13.2604 146.224 13.2604V21.1607H153.494C154.745 21.0642 156.055 20.5047 156.594 19.2507C157.095 18.0257 156.941 15.9903 156.941 14.254H159.627V23.8616H137.818V21.1703C139.041 21.1125 140.504 21.479 141.169 20.2346C141.419 19.6076 141.4 18.8842 141.4 18.1607V5.41804C141.4 4.73315 141.043 4.06756 140.379 3.69136C139.628 3.31516 138.655 3.49844 137.818 3.44056V0.778198H159.627V10.4051H159.617Z" fill="#3D4D66"/>
<path fill-rule="evenodd" clip-rule="evenodd" d="M44.6202 6.54664C46.623 9.93247 46.4689 15.1029 44.3025 18.3633C41.7027 22.5015 37.3889 24.7877 32.536 24.315C28.2511 23.9677 24.053 20.6205 22.4931 16.5691C20.7406 12.1511 21.8672 6.85533 25.3047 3.55631C28.5593 0.266948 33.6626 -0.929184 38.0437 0.768553C40.682 1.72353 43.2722 4.00969 44.6202 6.54664ZM38.891 5.91964C37.8607 4.44377 36.3875 3.50808 34.7603 3.25728C32.1605 2.88108 29.8495 4.10615 28.5304 6.32478C26.4987 9.61415 26.4698 14.8231 28.5593 18.0835C29.6858 19.9646 31.5924 21.2186 33.7877 21.1896C36.3201 21.315 38.6407 19.463 39.6036 17.2057C41.2405 13.8488 41.019 8.95821 38.891 5.91964Z" fill="#3D4D66"/>
<path fill-rule="evenodd" clip-rule="evenodd" d="M80.1315 27.5465C80.7285 28.4533 81.2869 29.3986 81.8839 30.3053L83.6075 27.5465H96.0287C96.6257 28.4533 97.1264 29.3986 97.7523 30.3053L99.4758 27.5658H132.955L128.228 30.8745H121.719L118.589 33.1027H112.456L109.297 35.5432H103.106L100.102 37.8004H94.9984V44.9483H84.6185V37.8197H79.5441L76.511 35.5432H70.3485L67.1614 33.1027H61.0471L57.9177 30.8745H51.3797L46.6904 27.5561H80.1315V27.5465ZM81.8261 32.1863L79.5441 28.4532H49.5598L52.0344 29.8905H69.9056L71.09 30.8937V30.9227H60.0457C60.5752 31.3664 61.1434 31.8005 61.7018 32.2442H76.0681C76.4147 32.524 76.8191 32.9002 77.0695 33.2185H69.0294C69.6264 33.6912 70.2523 34.1542 70.8396 34.5979H81.2292C81.5758 34.9741 82.0765 35.2249 82.3557 35.6011H78.379C78.9086 36.0352 79.5056 36.4114 80.0641 36.8551H84.6089V30.1606H94.9888V36.8551H99.5529L101.276 35.6011L97.2708 35.5722L98.3974 34.5883H108.816L110.626 33.2088C107.94 33.2088 105.195 33.2088 102.519 33.2088L103.549 32.2539H117.915L119.542 30.9227H108.527C108.931 30.5465 109.336 30.2764 109.711 29.9002H127.582L130.086 28.4629H100.082L97.8004 32.2249C96.982 30.9709 96.1443 29.7169 95.3258 28.4629H84.3297C83.4534 29.6783 82.7024 30.9999 81.8261 32.1863ZM92.6201 32.8423L93.9007 30.9613H85.7932L87.1028 32.8423H92.6201ZM89.3655 37.4242C88.1427 35.6976 86.8332 34.0384 85.6103 32.3503V42.6911L89.3655 37.4242ZM90.4343 37.3953L93.9681 42.3149V32.3407C92.7742 34.0384 91.5224 35.6976 90.4343 37.3953ZM89.9336 36.6718L91.9365 33.7876H87.8057L89.9336 36.6718ZM87.6805 41.3213H92.1579L89.8759 38.1091L87.6805 41.3213ZM92.8127 42.2859H86.9006L85.6199 44.1187H94.257C93.7756 43.5207 93.3037 42.8744 92.8127 42.2859Z" fill="#3D4D66"/>
</g>
</svg>
