<svg width="191" height="32" viewBox="0 0 191 32" fill="none" xmlns="http://www.w3.org/2000/svg">
<g opacity="0.7">
<path d="M167.752 23.7721C167.752 17.9026 163.429 16.2175 158.304 16.2175C153.054 16.2175 148.855 17.8461 148.855 23.7721C148.855 29.6981 153.02 31.3266 158.304 31.3266C163.169 31.3606 167.752 29.6981 167.752 23.7721ZM151.237 23.806C151.237 19.4067 154.646 18.5472 158.304 18.5472C161.769 18.5472 165.37 19.4067 165.37 23.806C165.37 28.1714 161.871 29.0987 158.304 29.0987C154.612 29.0648 151.237 28.1374 151.237 23.806Z" fill="#3D4D66"/>
<path d="M102.751 16.8846H100.144V31.2926H102.751V16.8846Z" fill="#3D4D66"/>
<path d="M113.194 16.8846H110.552V31.3604H124.742V28.9968H113.194V16.8846Z" fill="#3D4D66"/>
<path d="M144.78 16.8846H124.866V19.1465H133.581V31.3604H136.223V19.1465H144.78V16.8846Z" fill="#3D4D66"/>
<path d="M190.872 31.3605V23.5232C190.872 21.0352 190.872 16.7716 182.473 16.7716C174.075 16.7716 174.007 21.0691 174.007 23.5232V31.3605H176.615C176.615 31.3605 176.615 26.7124 176.615 24.6655C176.682 22.1435 175.79 19.1239 182.372 19.1239C188.953 19.1239 188.163 22.1548 188.231 24.6655C188.231 26.7351 188.231 31.3605 188.231 31.3605H190.872Z" fill="#3D4D66"/>
<path d="M49.5355 16.7603C40.0189 16.7603 40.2447 21.0578 40.2447 23.5119V31.3492H42.9202C42.9202 31.3492 42.9202 28.4201 42.9202 26.3505H49.5693H56.1846C56.1846 28.4201 56.1846 31.3492 56.1846 31.3492H58.8601V23.5119C58.7924 21.0351 59.052 16.7603 49.5355 16.7603ZM56.1508 23.8624H49.5355H42.8863C42.8525 21.6006 42.3106 19.0787 49.5355 19.0787C56.7265 19.09 56.1846 21.5441 56.1508 23.8624Z" fill="#3D4D66"/>
<path d="M92.3881 31.3605V23.4214C92.3542 19.9156 92.7042 16.4775 85.6486 16.4775C82.6232 16.4775 80.3654 16.9865 79.4736 18.3888C78.6157 17.0204 76.3918 16.4775 73.3325 16.4775C66.593 16.4775 66.6156 19.9156 66.593 23.4214V31.3605H69.3588C69.3588 31.3605 69.3588 26.6446 69.3588 24.5071C69.4491 21.4762 68.5911 18.9656 73.276 18.9656C78.3673 18.9656 78.1415 19.9269 78.1415 24.5071C78.1415 26.6106 78.1415 31.3605 78.1415 31.3605H79.4736H80.8396C80.8396 31.3605 80.8396 26.6446 80.8396 24.4732C80.8396 19.8816 80.6477 18.9317 85.7051 18.9317C90.3787 18.9317 89.4869 21.4536 89.6223 24.4732V31.3266L92.3881 31.3605Z" fill="#3D4D66"/>
<path d="M32.5118 31.2587V16.7603H29.8363V22.3357H16.6396V16.7603H13.9642V31.2587H16.6396C16.6396 31.2587 16.6396 27.5606 16.6396 24.9821H29.8363V31.2587H32.5118Z" fill="#3D4D66"/>
<path d="M11.7066 16.7603V14.4984H13.9643H16.6398H18.8976V16.7603V20.0739H23.2212V0H0V23.2631H11.7066V16.7603Z" fill="#3D4D66"/>
</g>
</svg>
