<svg width="173" height="24" viewBox="0 0 173 24" fill="none" xmlns="http://www.w3.org/2000/svg">
<g opacity="0.6">
<path d="M0 12.0003C0 18.5565 4.9419 23.9109 11.4863 23.9109H26.3836V17.9287H15.2554C10.788 17.9287 8.54983 15.247 8.54983 12.0003C8.54983 8.72669 10.797 6.04499 15.2554 6.04499H26.3836V0.0896665H11.4863C4.9419 0.0896665 0 5.45306 0 12.0003ZM80.8249 7.31858C80.7533 1.47986 76.1963 0.0986441 74.8803 0.0986441H53.6087V23.9199H61.317V13.8479L67.1452 13.8748H68.694L73.1793 23.9199H81.1024L77.0647 13.1124C78.3629 12.5743 80.8965 11.2649 80.8249 7.31858ZM73.0182 7.48001C72.9465 9.39037 70.583 9.44419 68.2464 9.44419H61.2722V5.04048H68.2464C69.9384 5.04048 73.1345 5.3813 73.0182 7.48001ZM51.6928 5.64138L51.666 0.0896665H29.1768V23.9109H51.6928V18.3413H35.578V14.6102H51.6928V9.04058H35.578V5.64138H51.6928ZM133.404 7.60556L133.735 13.0586L123.153 0H115.946V23.9199H123.35V16.3412L123.019 10.8882L132.903 23.9289H140.808V0.00895023H133.404V7.60556ZM161.023 0H153.189L141.748 23.9199H150.369L151.417 20.144H163.261L164.362 23.9199H172.957L161.023 0ZM157.156 14.7089H154.532L157.111 8.89707L157.156 9.01367L159.779 14.7089H157.156ZM81.3262 6.332H89.8492V23.9109H96.1519V6.332H103.86V0.0896665H81.3173V6.332H81.3262ZM105.463 23.9199H113.099V0.0986441H105.463V23.9199Z" fill="#3D4D66"/>
</g>
</svg>
