<svg width="161" height="59" viewBox="0 0 161 59" fill="none" xmlns="http://www.w3.org/2000/svg">
<g opacity="0.6">
<path fill-rule="evenodd" clip-rule="evenodd" d="M0.00842812 29.0779H27.5582V36.284H18.3159V58.4008H9.24229V36.284H0V29.0779H0.00842812ZM31.0072 29.0779H40.0809V58.4008H31.0072V29.0779ZM44.078 48.4406H52.7469C52.9324 49.8514 53.3119 50.654 53.8853 51.389C54.8129 52.5717 56.1453 53.163 57.874 53.163C59.1642 53.163 60.1593 52.8589 60.8592 52.2591C61.5591 51.6593 61.9049 50.9581 61.9049 50.1556C61.9049 49.3952 61.5675 48.7109 60.9014 48.1111C60.2352 47.5198 58.6751 46.9622 56.2465 46.4216C52.2578 45.5261 49.4159 44.3349 47.7125 42.8481C46.0007 41.3781 45.149 39.4858 45.149 37.1795C45.149 35.6757 45.5875 34.2565 46.4645 32.9217C47.3415 31.5785 48.657 30.5225 50.411 29.7537C52.1735 28.9849 54.5852 28.5963 57.6463 28.5963C61.4073 28.5963 64.266 29.2975 66.2393 30.6914C68.2125 32.0854 69.3847 34.5606 69.7642 37.6019H61.1796C60.9519 36.2924 60.4797 35.5828 59.7545 34.983C59.0293 34.3748 58.0258 34.0791 56.7524 34.0791C55.6983 34.0791 54.9057 34.3072 54.3744 34.7549C53.8431 35.2027 53.5817 35.7518 53.5817 36.3854C53.5817 36.8416 53.801 37.2555 54.2395 37.6272C54.6611 38.0158 55.6815 38.3791 57.2837 38.7086C61.2555 39.5702 64.1058 40.4319 65.8261 41.2936C67.5464 42.1638 68.7944 43.2451 69.5787 44.5377C70.3629 45.8386 70.7508 47.2748 70.7508 48.863C70.7508 50.7469 70.228 52.4787 69.1823 54.067C68.1367 55.6552 66.6862 56.8548 64.8141 57.6658C62.9421 58.4768 60.5809 58.8823 57.7391 58.8823C52.7385 58.8823 49.281 57.9192 47.3584 56.0015C45.4188 54.1007 44.331 51.389 44.078 48.4406ZM72.6988 48.4406H81.3677C81.5532 49.8514 81.9326 50.654 82.5061 51.389C83.4337 52.5717 84.7661 53.163 86.4948 53.163C87.785 53.163 88.78 52.8589 89.48 52.2591C90.1799 51.6593 90.5256 50.9581 90.5256 50.1556C90.5256 49.3952 90.1883 48.7109 89.5221 48.1111C88.8559 47.5198 87.2959 46.9622 84.8672 46.4216C80.8785 45.5261 78.0367 44.3349 76.3333 42.8481C74.6214 41.3781 73.7697 39.4858 73.7697 37.1795C73.7697 35.6757 74.2083 34.2565 75.0853 32.9217C75.9623 31.5785 77.2778 30.5225 79.0318 29.7537C80.7858 28.9849 83.1976 28.5963 86.2587 28.5963C90.0197 28.5963 92.8783 29.2975 94.8516 30.6914C96.8249 32.0854 97.997 34.5606 98.3681 37.6019H89.7835C89.5559 36.2924 89.0836 35.5828 88.3584 34.983C87.6332 34.3748 86.6297 34.0791 85.3564 34.0791C84.3023 34.0791 83.5096 34.3072 82.9783 34.7549C82.447 35.2027 82.1772 35.7518 82.1772 36.3854C82.1772 36.8416 82.3964 37.2555 82.8349 37.6272C83.2566 38.0158 84.277 38.3791 85.8792 38.7086C89.851 39.5702 92.7013 40.4319 94.4216 41.2936C96.1418 42.1638 97.3899 43.2451 98.1741 44.5377C98.9584 45.8386 99.3463 47.2748 99.3463 48.863C99.3463 50.7469 98.8235 52.4787 97.7862 54.067C96.7406 55.6552 95.2901 56.8548 93.4181 57.6658C91.546 58.4768 89.1932 58.8823 86.343 58.8823C81.3423 58.8823 77.8849 57.9192 75.9622 56.0015C74.048 54.1007 72.9602 51.389 72.6988 48.4406ZM113.496 37.3991C114.601 36.1066 116.068 35.4645 117.898 35.4645C119.804 35.4645 121.314 36.0981 122.427 37.3653C123.54 38.6325 124.096 40.6431 124.096 43.3887C124.096 46.6581 123.565 48.9222 122.494 50.1893C121.423 51.4565 119.914 52.0901 117.974 52.0901C116.085 52.0901 114.584 51.4396 113.48 50.1471C112.375 48.8546 111.827 46.7341 111.827 43.7858C111.844 40.8206 112.392 38.6832 113.496 37.3991ZM104.785 52.3182C106.135 54.5992 107.897 56.2634 110.064 57.3194C112.232 58.367 114.972 58.8992 118.286 58.8992C121.541 58.8992 124.265 58.2909 126.449 57.0744C128.633 55.8579 130.295 54.1514 131.45 51.955C132.605 49.7585 133.178 46.9538 133.178 43.5239C133.178 38.8184 131.863 35.152 129.215 32.5246C126.567 29.9058 122.806 28.5879 117.924 28.5879C113.159 28.5879 109.44 29.9227 106.767 32.5838C104.094 35.2449 102.762 38.9704 102.762 43.7604C102.762 47.1903 103.436 50.0457 104.785 52.3182ZM132.942 29.0779H160.501V36.284H151.258V58.4008H142.185V36.284H132.942V29.0779Z" fill="#3D4D66"/>
<path fill-rule="evenodd" clip-rule="evenodd" d="M78.9138 23.1052H54.8804V0H78.9138V23.1052ZM106.278 23.1052H82.2447V0H106.278V23.1052ZM58.0006 2.06975H75.7346V7.13853H70.0257V21.348H63.7095V7.13853H58.0006V2.06975ZM91.7063 14.0912H85.5757V9.04777H91.7063V2.94835H96.7575V9.04777H102.863V14.0912H96.7575V20.2075H91.7063V14.0912Z" fill="#3D4D66"/>
</g>
</svg>
