<svg width="184" height="49" viewBox="0 0 184 49" fill="none" xmlns="http://www.w3.org/2000/svg">
<g opacity="0.7">
<path fill-rule="evenodd" clip-rule="evenodd" d="M176.829 0.00967016V1.44165H179.688V18.1802L171.257 4.60552L168.398 0H157.938V1.43197H160.72V27.5267H157.938V29.636H164.786V27.5267H162.902V5.66014L171.257 19.6896L177.283 29.6457H181.794V1.44165H183.754V0.00967016H176.829ZM179.688 27.5364H178.181L171.257 15.771L162.902 1.44165H165.916L171.266 9.96574L179.698 23.1631V27.5364H179.688ZM72.6479 27.5364H67.4519V1.44165H69.48V0.00967016H56.7604V1.44165H59.5419V27.5364H56.7604V29.6457H79.6403V19.767H77.6121C77.6121 24.895 76.6367 27.5364 72.6479 27.5364ZM63.3858 27.5364H60.981V1.44165H63.3858V27.5364ZM141.896 0.00967016V1.44165H144.61V27.5364H141.896L131.581 0.00967016H123.758L114.496 27.5364H110.131V1.44165H112.767V0.00967016H102.153L96.5805 12.5297L90.3318 0.00967016H80.5482V1.44165H82.3542V27.5364H80.5482V29.6457H86.7969V27.5364H84.537V5.89236L89.8102 16.1484L94.1757 24.7499L102.153 5.51502V27.5364H100.347V29.6457H119.393V27.5364H116.988L119.924 18.1125H126.926L128.954 18.1899L132.19 27.5364H129.476V29.6457H155.369V27.5364H152.588V1.44165H155.369V0.00967016H141.896ZM93.4224 19.6219L89.8102 12.2298L84.537 1.44165H87.2509L89.8102 6.1923L95.0835 15.8484L93.4224 19.6219ZM106.741 27.5364H104.336V1.44165H106.741V27.5364ZM126.916 16.071H120.214L124.203 3.6283L126.916 11.3203L128.568 16.071H126.916ZM149.352 1.44165V27.5364H146.947V1.44165H149.352ZM134.295 27.5364L126.916 6.2697L125.265 1.44165H128.655L138.062 27.5364H134.295ZM44.3401 0.00967016H37.2608L28.2305 27.5364H25.7484V29.6457H32.5959V27.5364H29.9593L32.8181 18.4898H42.5244L45.4605 27.5364H42.5244V29.6457H55.9974V27.5364H54.4135L44.3401 0.00967016ZM46.9768 27.5364L38.3908 1.44165H41.6262L50.6565 27.5364H46.9768ZM33.1175 17.1353L37.5602 3.63797L42.0029 17.1353H33.1175ZM21.7596 14.4165C24.5411 12.5297 25.0723 10.2657 25.0723 7.70167C25.0723 5.13767 23.0441 0.00967016 18.7463 0.00967016H0V1.44165H2.8588V27.5364H0V29.6457H18.7463C22.059 29.6457 25.7484 26.327 25.7484 21.9537C25.7484 17.6577 24.3866 16.3032 21.7596 14.4165ZM10.6915 1.44165H15.2114C15.8102 1.44165 16.2642 2.27374 16.6409 3.32837C17.1721 4.76034 17.3942 6.64704 17.3942 7.70167C17.3942 8.45636 17.0948 9.51099 16.6409 10.5656C16.0421 12.075 15.0569 13.4296 14.0815 13.3522H10.6915V1.44165ZM7.60091 27.5364H5.19604V1.44165H7.60091V27.5364ZM16.6409 26.327C16.3415 27.0816 15.8102 27.5364 15.2114 27.5364H10.6915V15.4711H13.8497C14.9024 15.4711 15.9551 16.9031 16.6312 18.5672C17.1624 19.7767 17.4618 21.0538 17.4618 21.9633C17.4618 23.463 17.2397 25.2046 16.6409 26.327L17.4714 27.5364C18.8236 25.8819 18.9781 24.5951 18.9781 21.9537C18.9781 19.767 18.0026 17.203 16.6409 15.3937C16.4284 15.0357 16.1772 14.7067 15.8875 14.4165C16.1096 14.0391 16.4187 13.7392 16.6409 13.4392C17.993 11.7073 18.9781 9.6658 18.9781 7.71136C18.9781 5.36989 18.0702 3.49285 17.4714 1.45132C20.1854 2.28341 22.2135 4.47007 22.2135 7.71136C22.2135 10.8752 19.7314 12.5394 16.7181 14.4261C20.1081 16.3129 22.2135 18.277 22.2135 21.9633C22.2135 25.6594 20.562 26.8688 17.4714 27.5461L16.6409 26.327ZM70.3879 39.5243C69.9146 39.205 69.3738 38.9922 68.8039 38.9244C68.5818 38.9244 68.2728 38.847 67.9734 38.847H66.3894V48.271H67.2973V44.1202H68.1279C68.3501 44.1202 68.5818 44.1202 68.8039 44.0428C69.4027 43.9654 69.934 43.8202 70.3879 43.5106C70.9191 43.1333 71.2185 42.456 71.2185 41.4788C71.2088 40.5112 70.9094 39.9017 70.3879 39.5243ZM69.8567 42.9204C69.6346 43.0752 69.2579 43.2204 68.8039 43.2978H67.2973V39.6791H68.0507C68.3501 39.6791 68.5818 39.6791 68.8039 39.7565C69.8567 39.9113 70.3106 40.5112 70.3106 41.4884C70.3106 42.1657 70.1561 42.6205 69.8567 42.9204ZM117.432 43.53C117.258 43.3655 117.056 43.23 116.833 43.1526C116.534 42.9978 116.235 42.7753 115.703 42.5527C115.027 42.098 114.651 41.5755 114.651 40.966C114.651 40.4338 114.805 40.0565 115.105 39.8339C115.404 39.6114 115.703 39.4566 116.157 39.4566C116.756 39.4566 117.21 39.7565 117.587 40.2887L118.186 39.8339C117.886 39.3018 117.587 39.0019 117.287 38.8567C116.911 38.7019 116.611 38.7019 116.157 38.7019C115.481 38.7019 114.873 38.8567 114.506 39.3018C114.052 39.7565 113.83 40.279 113.83 40.9563C113.83 41.411 113.907 41.711 114.129 42.0109C114.429 42.3883 114.728 42.6882 115.027 42.9881C115.327 43.1429 115.703 43.3655 116.312 43.7428C116.843 44.0428 117.143 44.275 117.287 44.3427C117.664 44.7201 117.819 45.1748 117.819 45.8521C117.819 46.452 117.664 46.9841 117.287 47.3615C116.988 47.6614 116.534 47.8162 116.003 47.8162C115.027 47.8162 114.496 47.3615 114.12 46.3842L113.443 46.7616C113.743 47.5163 114.12 47.971 114.573 48.1935C115.027 48.4161 115.472 48.5709 116.003 48.5709C116.602 48.5709 117.133 48.4161 117.587 48.1161C117.963 47.8936 118.186 47.5163 118.417 47.1389C118.572 46.6842 118.64 46.2391 118.64 45.7843C118.64 44.8845 118.263 44.1299 117.432 43.53ZM81.9003 38.7696L77.9888 48.271H78.8193L80.0266 45.1071H83.7933L84.9232 48.271H85.8311L81.9872 38.5471L81.9003 38.7696ZM81.9003 44.4298H80.3164L81.9003 40.3564V40.279L83.4842 44.4298H81.9003ZM105.611 48.2806H106.509V38.8567H105.611V48.2806ZM95.0739 43.8299H95.1511C95.6823 43.7525 96.2812 43.6074 96.7351 43.23C97.189 42.8527 97.4111 42.2528 97.4111 41.4981C97.4111 39.9113 96.6578 39.0793 95.1511 38.9341C94.929 38.9341 94.7745 38.8567 94.5524 38.8567H92.9008V48.2806H93.7314V43.8299H94.1853L95.1608 45.1845L97.3435 48.2806H98.3962L95.1608 43.9073L95.0739 43.8299ZM93.7218 43.1526V39.6791H95.1511C95.5278 39.7565 95.8272 39.8339 96.0493 40.0565C96.426 40.279 96.5805 40.8112 96.5805 41.411C96.5805 42.1657 96.3584 42.6205 95.9817 42.843C95.7596 42.9204 95.4505 42.9978 95.1511 43.0655C94.929 43.0655 94.62 43.1429 94.3206 43.1429H93.7218V43.1526Z" fill="#3D4D66"/>
</g>
</svg>
