<svg width="193" height="26" viewBox="0 0 193 26" fill="none" xmlns="http://www.w3.org/2000/svg">
<g opacity="0.7">
<path d="M3.03067 12.8985C3.03067 18.7467 7.20039 23.0666 12.6515 23.0666C17.7264 23.0666 20.2994 19.8776 21.0622 18.3595H23.9403C23.1877 20.7844 19.7706 25.7971 12.6515 25.7971C5.45114 25.7971 0 20.3361 0 12.8985C0 5.53231 5.5325 0 12.6515 0C19.7706 0 23.2589 4.93121 24.0115 7.43755H21.052C20.1469 5.84816 17.6451 2.65919 12.6414 2.65919C7.19024 2.649 3.03067 6.97906 3.03067 12.8985ZM39.1649 17.7584H28.7101L25.8319 25.2774H22.9538L32.5747 0.376966H35.3816L45.0025 25.3488H42.043L39.1649 17.7584ZM38.1886 15.252L33.9477 4.09576L29.7068 15.252H38.1886ZM58.9457 25.3488H46.5179V0.376966H49.4773V22.6183H59.027L58.9457 25.3488ZM67.0512 25.3488H64.3256L55.0098 0.376966H58.1117L65.6884 21.3243L73.2651 0.376966H76.2246L67.0512 25.3488ZM80.9944 25.3488H78.1162V0.376966H80.9944V25.3488ZM87.8897 5.23686V25.3488H85.1641V0.376966H87.8897L101.751 20.5704V0.376966H104.477V25.3488H101.975L87.8897 5.23686ZM121.522 13.8868L118.339 17.4527V25.3488H115.461V0.376966H118.339V13.6627L130.004 0.376966H133.492L123.495 11.6148L133.492 25.2774H130.156L121.522 13.8868ZM147.588 25.3488H135.16V0.376966H138.12V22.6183H147.669V25.3488H147.588ZM149.408 0.376966H162.67V3.03616H152.287V11.3091H162.365V13.9683H152.287V22.6183H162.67V25.2774H149.408V0.376966ZM169.108 25.3488H166.23V0.376966H169.108V25.3488ZM175.922 5.23686V25.3488H173.196V0.376966H175.922L189.784 20.5704V0.376966H192.509V25.3488H190.007L175.922 5.23686Z" fill="#3D4D66"/>
</g>
</svg>
