<svg width="159" height="53" viewBox="0 0 159 53" fill="none" xmlns="http://www.w3.org/2000/svg">
<g opacity="0.6">
<path d="M37.404 29.2658C37.1738 29.2215 36.9613 29.1505 36.7488 29.0618C36.5364 28.9731 36.3416 28.8667 36.1557 28.7426C35.9698 28.6184 35.8016 28.4765 35.6422 28.3168C35.4828 28.1572 35.3412 27.9887 35.2173 27.8024C35.0933 27.6162 34.9871 27.4211 34.8986 27.2082C34.8986 27.2082 33.3227 22.9068 32.8535 21.9401C32.6145 21.4345 32.3312 20.9645 31.9948 20.5476C31.6584 20.1219 31.26 19.7494 30.8085 19.4213C30.3481 19.0931 29.8346 18.8182 29.2415 18.5876C28.6572 18.3659 28.0021 18.1885 27.2761 18.0732C27.2761 18.0732 27.0991 18.0288 26.683 17.9756C31.2334 17.9756 34.6152 15.6342 34.6152 8.99135C34.6152 4.07794 30.9944 0.00708008 25.1337 0.00708008H13.7222H0V2.07355C1.92996 2.07355 3.49694 3.64336 3.49694 5.57679V25.8513C3.49694 27.7847 1.92996 29.3545 0 29.3545V31.421H17.228V29.3545C15.298 29.3545 13.7399 27.7847 13.7399 25.8513V19.2528H18.432C21.2207 19.2528 22.4866 22.3392 23.5844 25.3457C24.6733 28.3523 25.6737 31.421 28.852 31.421H38.1122V29.3545C37.8643 29.3368 37.6341 29.3102 37.404 29.2658ZM19.6094 16.0599H13.7399V3.1733H19.6094C23.7349 3.1733 25.0098 6.05572 25.0098 9.61218C25.0098 13.1775 23.7438 16.0599 19.6094 16.0599Z" fill="#3D4D66"/>
<path d="M109.945 0H98.6576H84.9355V2.06647C86.8654 2.06647 88.4235 3.63628 88.4235 5.56972V25.8531C88.4235 27.7865 86.8566 29.3563 84.9355 29.3563V31.4228H109.936C115.797 31.4228 119.861 26.7134 119.861 21.7999V9.62284C119.869 4.70943 115.806 0 109.945 0ZM109.945 21.7822C109.945 25.3387 108.67 28.2211 104.545 28.2211H98.6753V3.17509H104.545C108.67 3.17509 109.945 6.05751 109.945 9.61397V21.7822Z" fill="#3D4D66"/>
<path d="M82.5542 29.3386C82.5011 29.3386 82.448 29.3298 82.3949 29.3298C82.3418 29.3209 82.2886 29.3209 82.2355 29.312C82.1824 29.3032 82.1293 29.2943 82.0762 29.2854C82.0231 29.2766 81.9699 29.2677 81.9168 29.25C81.8637 29.2411 81.8106 29.2234 81.7663 29.2056C81.7132 29.1879 81.6689 29.1701 81.6158 29.1524C81.5716 29.1347 81.5184 29.1169 81.4742 29.0992C81.4299 29.0814 81.3768 29.0548 81.3325 29.0371C81.2883 29.0194 81.2351 28.9928 81.1909 28.9662C81.1466 28.9395 81.1024 28.9129 81.0581 28.8863C81.0138 28.8597 80.9695 28.8331 80.9253 28.8065C80.881 28.7799 80.8368 28.7444 80.8013 28.7178C80.7571 28.6823 80.7217 28.6557 80.6774 28.6203C80.642 28.5848 80.5977 28.5493 80.5623 28.5227C80.5269 28.4872 80.4826 28.4517 80.4472 28.4163C80.4118 28.3808 80.3764 28.3453 80.341 28.301C80.3056 28.2655 80.279 28.2212 80.2436 28.1857C80.2082 28.1502 80.1816 28.1059 80.1462 28.0615C80.1197 28.0172 80.0843 27.9817 80.0577 27.9374C80.0311 27.893 80.0046 27.8487 79.9692 27.8043C79.9426 27.76 79.916 27.7156 79.8895 27.6713C79.8629 27.6269 79.8452 27.5826 79.8186 27.5294C79.7921 27.485 79.7744 27.4318 79.7567 27.3875C79.739 27.3431 79.7213 27.2899 79.6947 27.2456C79.677 27.1924 79.6593 27.148 79.6416 27.0948C79.6239 27.0416 79.6062 26.9972 79.5973 26.944L72.2316 0.0178223H50.4798L43.1141 26.944C43.0964 26.9972 43.0876 27.0416 43.0699 27.0948C43.0522 27.148 43.0345 27.1924 43.0168 27.2456C42.999 27.2899 42.9813 27.3431 42.9548 27.3875C42.9371 27.4318 42.9105 27.485 42.8928 27.5294C42.8662 27.5737 42.8485 27.6269 42.822 27.6713C42.7954 27.7156 42.7689 27.76 42.7423 27.8043C42.7158 27.8487 42.6892 27.893 42.6538 27.9374C42.6272 27.9817 42.5918 28.0172 42.5652 28.0615C42.5387 28.1059 42.5033 28.1413 42.4679 28.1857C42.4325 28.2212 42.4059 28.2655 42.3705 28.301C42.3351 28.3365 42.2997 28.3719 42.2642 28.4163C42.2288 28.4517 42.1934 28.4872 42.1491 28.5227C42.1137 28.5582 42.0695 28.5937 42.0341 28.6203C41.9986 28.6557 41.9544 28.6823 41.9101 28.7178C41.8659 28.7444 41.8304 28.7799 41.7862 28.8065C41.7419 28.8331 41.6976 28.8597 41.6534 28.8863C41.6091 28.9129 41.5649 28.9395 41.5206 28.9662C41.4763 28.9928 41.4321 29.0105 41.3789 29.0371C41.3347 29.0637 41.2816 29.0814 41.2373 29.0992C41.193 29.1169 41.1399 29.1347 41.0956 29.1524C41.0425 29.1701 40.9983 29.1879 40.9452 29.2056C40.892 29.2234 40.8478 29.2411 40.7946 29.25C40.7415 29.2677 40.6884 29.2766 40.6353 29.2854C40.5822 29.2943 40.5291 29.3032 40.4759 29.312C40.4228 29.3209 40.3697 29.3298 40.3166 29.3298C40.2635 29.3386 40.2103 29.3386 40.1572 29.3386C40.1041 29.3386 40.051 29.3475 39.989 29.3475V31.4406H55.8624V29.3475C55.8182 29.3475 55.7739 29.3475 55.7385 29.3475C55.6942 29.3475 55.6588 29.3386 55.6146 29.3386C55.5703 29.3298 55.5349 29.3298 55.4906 29.3209C55.4464 29.312 55.4109 29.312 55.3667 29.3032C55.3313 29.2943 55.287 29.2854 55.2516 29.2766C55.2162 29.2677 55.1719 29.2588 55.1365 29.2411C55.1011 29.2322 55.0657 29.2145 55.0214 29.2056C54.986 29.1967 54.9506 29.179 54.9152 29.1613C54.8798 29.1435 54.8443 29.1347 54.8089 29.1169C54.7735 29.0992 54.7381 29.0814 54.7027 29.0637C54.6673 29.046 54.6319 29.0282 54.6053 29.0016C54.5699 28.9839 54.5433 28.9573 54.5079 28.9395C54.4725 28.9129 54.446 28.8952 54.4106 28.8686C54.3751 28.842 54.3486 28.8242 54.3132 28.7976C54.2866 28.771 54.2512 28.7444 54.2247 28.7178C54.1981 28.6912 54.1715 28.6646 54.1361 28.638C54.1096 28.6114 54.083 28.5848 54.0564 28.5493C54.0299 28.5227 54.0033 28.4961 53.9768 28.4606C53.9502 28.434 53.9325 28.3985 53.9059 28.3631C53.8794 28.3365 53.8617 28.301 53.8351 28.2655C53.8174 28.23 53.7908 28.2034 53.7731 28.1679C53.7554 28.1325 53.7289 28.097 53.7112 28.0704C53.6935 28.0349 53.6758 27.9994 53.658 27.964C53.6403 27.9285 53.6226 27.893 53.6049 27.8575C53.5872 27.8221 53.5784 27.7866 53.5607 27.7511C53.543 27.7156 53.5341 27.6802 53.5253 27.6358C53.5164 27.6003 53.5075 27.556 53.4898 27.5205C53.481 27.485 53.4721 27.4407 53.4633 27.4052C53.4544 27.3697 53.4456 27.3254 53.4456 27.2899C53.4367 27.2456 53.4367 27.2101 53.4279 27.1657C53.4279 27.1214 53.419 27.0859 53.419 27.0416C53.419 26.9972 53.419 26.9618 53.419 26.9174C53.419 26.8819 53.419 26.8376 53.419 26.7933C53.419 26.7578 53.4279 26.7134 53.4279 26.6691C53.4367 26.6336 53.4367 26.5893 53.4456 26.5449C53.4544 26.5094 53.4544 26.4651 53.4633 26.4208C53.4721 26.3853 53.481 26.3409 53.4898 26.3055L54.5788 21.8621H67.6281L68.655 26.3055C68.6639 26.3409 68.6727 26.3853 68.6816 26.4208C68.6904 26.4562 68.6993 26.5006 68.6993 26.5449C68.7081 26.5804 68.7082 26.6247 68.717 26.6691C68.717 26.7134 68.7258 26.7489 68.7258 26.7933C68.7258 26.8376 68.7258 26.8819 68.7258 26.9174C68.7258 26.9618 68.7258 27.0061 68.7258 27.0416C68.7258 27.0859 68.717 27.1214 68.717 27.1657C68.7082 27.2012 68.7081 27.2456 68.6993 27.2899C68.6904 27.3254 68.6816 27.3697 68.6816 27.4052C68.6727 27.4407 68.6639 27.485 68.655 27.5205C68.6462 27.556 68.6373 27.6003 68.6196 27.6358C68.6108 27.6713 68.5931 27.7068 68.5842 27.7511C68.5665 27.7866 68.5576 27.8221 68.5399 27.8575C68.5222 27.893 68.5045 27.9285 68.4868 27.964C68.4691 27.9994 68.4514 28.0349 68.4337 28.0704C68.416 28.1059 68.3983 28.1413 68.3717 28.1679C68.354 28.2034 68.3275 28.23 68.3097 28.2655C68.292 28.301 68.2655 28.3276 68.2389 28.3631C68.2124 28.3985 68.1947 28.4251 68.1681 28.4606C68.1416 28.4872 68.115 28.5227 68.0884 28.5493C68.0619 28.5759 68.0353 28.6114 68.0087 28.638C67.9822 28.6646 67.9557 28.6912 67.9202 28.7178C67.8937 28.7444 67.8583 28.771 67.8317 28.7976C67.7963 28.8242 67.7697 28.8509 67.7343 28.8686C67.7077 28.8863 67.6723 28.9129 67.6369 28.9395C67.6015 28.9573 67.575 28.9839 67.5395 29.0016C67.5041 29.0194 67.4687 29.0371 67.4422 29.0637C67.4068 29.0814 67.3714 29.0992 67.3359 29.1169C67.3005 29.1347 67.2651 29.1524 67.2297 29.1613C67.1943 29.179 67.1589 29.1879 67.1146 29.2056C67.0792 29.2234 67.0438 29.2322 66.9995 29.2411C66.9641 29.25 66.9198 29.2677 66.8844 29.2766C66.849 29.2854 66.8047 29.2943 66.7693 29.3032C66.7339 29.312 66.6897 29.3209 66.6454 29.3209C66.61 29.3298 66.5657 29.3298 66.5215 29.3386C66.4772 29.3386 66.4418 29.3475 66.3975 29.3475C66.3533 29.3475 66.3178 29.3475 66.2736 29.3475V31.414H82.6251V29.3475C82.6605 29.3386 82.6074 29.3386 82.5542 29.3386ZM55.4198 18.687L59.2266 3.17518H63.3521L66.9464 18.687H55.4198Z" fill="#3D4D66"/>
<path d="M148.438 0H134.946C129.085 0 125.022 4.70943 125.022 9.62284V21.7911C125.022 26.7045 129.085 31.4139 134.946 31.4139H148.438C154.299 31.4139 158.362 26.7045 158.362 21.7911V9.62284C158.362 4.70943 154.308 0 148.438 0ZM148.438 21.7822C148.438 25.3387 147.163 28.2211 143.038 28.2211H140.338C136.212 28.2211 134.937 25.3387 134.937 21.7822V9.62284C134.937 6.06638 136.203 3.18396 140.338 3.18396H143.038C147.163 3.18396 148.438 6.06638 148.438 9.62284V21.7822Z" fill="#3D4D66"/>
<path d="M5.01974 44.3538C5.01974 43.2806 4.63021 42.5356 3.43505 42.5356C2.37269 42.5356 1.74412 43.1121 1.74412 44.1941C1.74412 47.0677 6.56017 45.356 6.56017 49.0898C6.56017 51.449 4.83383 52.123 3.39079 52.123C1.00932 52.123 0.309937 50.8902 0.309937 48.7173H1.56706C1.56706 49.8614 1.63789 51.0942 3.47932 51.0942C4.47971 51.0942 5.24993 50.3758 5.24993 49.2938C5.24993 46.4025 0.442727 48.0787 0.442727 44.3272C0.442727 43.3871 0.841122 41.5068 3.42621 41.5068C5.36502 41.5068 6.25032 42.4824 6.28573 44.3538H5.01974Z" fill="#3D4D66"/>
<path d="M15.2981 41.7019H16.5552L18.1133 50.0565H18.1399L19.5829 41.7019H21.0968L22.5398 50.0565H22.5664L24.1245 41.7019H25.3817L23.2835 51.919H21.7519L20.3532 43.6531H20.3266L18.857 51.919H17.3254L15.2981 41.7019Z" fill="#3D4D66"/>
<path d="M34.509 51.919H35.7662V41.7108H34.509V51.919Z" fill="#3D4D66"/>
<path d="M48.7003 51.919H47.4521V42.8194H44.8936V41.7108H51.2766V42.8194H48.7003V51.919Z" fill="#3D4D66"/>
<path d="M59.8994 50.8636L64.4852 42.8194H60.1561V41.7108H65.7955V42.8638L61.2185 50.8015H65.8574V51.919H59.8994V50.8636Z" fill="#3D4D66"/>
<path d="M75.1974 41.7019H80.4649V42.8194H76.4545V46.03H80.2347V47.1475H76.4545V50.8015H80.6331V51.919H75.1974V41.7019Z" fill="#3D4D66"/>
<path d="M89.9908 41.7019H93.2929C94.8953 41.7019 95.9046 42.6509 95.9046 44.265C95.9046 45.3825 95.5239 46.5532 94.3376 46.837V46.8725C95.2229 46.9701 95.7187 47.6973 95.7807 48.5754L95.8692 50.3225C95.9223 51.4489 96.1082 51.7416 96.4092 51.9278H94.8954C94.6829 51.715 94.5766 50.9522 94.5501 50.4556L94.4615 48.868C94.3642 47.4667 93.594 47.378 92.9477 47.378H91.2479V51.9278H89.9908V41.7019ZM91.2479 46.3404H92.4962C93.2398 46.3404 94.5943 46.3404 94.5943 44.3626C94.5943 43.3604 93.9215 42.7307 92.7529 42.7307H91.2568V46.3404H91.2479Z" fill="#3D4D66"/>
<path d="M105.59 41.7019H106.847V50.8015H110.981V51.919H105.59V41.7019Z" fill="#3D4D66"/>
<path d="M122.11 41.7019H123.792L126.536 51.919H125.226L124.5 49.1164H121.242L120.481 51.919H119.17L122.11 41.7019ZM121.499 48.0876H124.243L122.942 43.1564H122.915L121.499 48.0876Z" fill="#3D4D66"/>
<path d="M135.433 41.7019H137.062L140.435 50.2339H140.462V41.7019H141.719V51.919H139.992L136.717 43.6531H136.69V51.919H135.433V41.7019Z" fill="#3D4D66"/>
<path d="M151.687 41.7019H154.414C157.583 41.7019 157.982 43.9901 157.982 46.8104C157.982 49.3824 157.344 51.919 154.538 51.919H151.678V41.7019H151.687ZM152.944 50.8902H154.254C156.423 50.8902 156.671 48.6552 156.671 46.8282C156.671 44.8504 156.547 42.7396 154.254 42.7396H152.944V50.8902Z" fill="#3D4D66"/>
</g>
</svg>
